<svg xmlns="http://www.w3.org/2000/svg" 
    xmlns:xlink="http://www.w3.org/1999/xlink" version="1.1" x="0px" y="0px" viewBox="0 0 100 100" style="enable-background:new 0 0 100 100;" xml:space="preserve">
    <path stroke="white" d="M66,55.6v-13h0c-0.5-3.3-10.2-4.2-16-4.2c-5.8,0-15.5,0.9-16,4.2h0v0.2c0,0,0,0,0,0h0v12.3l0,0.4c0,3.9,8,6,16,6   C58,61.6,66,59.6,66,55.6L66,55.6z M36,42.9c0.4-0.9,5.5-2.5,14-2.5c8.5,0,13.7,1.6,14,2.5h0v0.7c-1.5,1.1-6.7,2.3-14,2.3   c-7.3,0-12.4-1.2-14-2.3V42.9z M36,44.7c2.6,1.4,8.3,2.2,14,2.2c5.7,0,11.4-0.7,14-2.2v0.6c-1.5,1.1-6.7,2.3-14,2.3   c-7.3,0-12.4-1.2-14-2.3V44.7z M36,46.4c2.6,1.4,8.3,2.2,14,2.2c5.7,0,11.4-0.7,14-2.2v3.3c-1.5,1.1-6.6,2.3-14,2.3   c-7.3,0-12.4-1.2-14-2.3V46.4z M64,55.6c0,1.6-5.5,4-14,4c-8.5,0-14-2.4-14-4v0h0v-4.8c2.6,1.4,8.3,2.2,14,2.2   c5.7,0,11.4-0.7,14-2.2v4.4L64,55.6L64,55.6z"/>
    <ellipse stroke="white" cx="41.9" cy="42.9" rx="2.3" ry="0.5"/>
    <ellipse stroke="white" cx="58.1" cy="42.9" rx="2.3" ry="0.5"/>
</svg>