<svg xmlns="http://www.w3.org/2000/svg" data-name="Layer 1" viewBox="0 0 99 99" x="0px" y="0px">
    <path stroke="white" d="M43.53,55.35a19,19,0,0,1,1.22-3.28h-15V40.86H62.65a20.41,20.41,0,0,1,3.42.29V24.47H26.47V67.09H44a19.27,19.27,0,0,1-.85-3.28H29.77V55.35ZM29.77,27.75h33v9.84h-33Z"/>
    <path stroke="white" d="M76.41,69.56A16.3,16.3,0,0,0,74.31,49,16.55,16.55,0,0,0,51,49a16.28,16.28,0,0,0,0,23.15A16.57,16.57,0,0,0,71.74,74.2l9.58,9.51L86,79.08ZM72,69.78a13.24,13.24,0,0,1-18.62,0,13,13,0,0,1,0-18.49,13.24,13.24,0,0,1,18.62,0A13,13,0,0,1,72,69.78Z"/>
</svg>